<svg width="1440" height="1024" viewBox="0 0 1440 1024" fill="none" xmlns="http://www.w3.org/2000/svg">
<g clip-path="url(#clip0_258_6)">
<rect width="1440" height="1024" fill="white"/>
<g opacity="0.8">
<rect x="359.648" y="320.933" width="834" height="230" rx="115" transform="rotate(137.264 359.648 320.933)" fill="#00B1FC"/>
<rect x="918.692" y="5.29175" width="464.913" height="162.414" rx="81.2069" transform="rotate(137.264 918.692 5.29175)" fill="#00B1FC"/>
<rect x="1454.96" y="-24.9055" width="464.913" height="162.414" rx="81.2069" transform="rotate(142.692 1454.96 -24.9055)" fill="#00B1FC"/>
</g>
<rect x="416.648" y="785.933" width="834" height="230" rx="115" transform="rotate(137.264 416.648 785.933)" fill="#00B1FC"/>
<rect x="1778.34" y="139.741" width="834" height="230" rx="115" transform="rotate(139.889 1778.34 139.741)" fill="#00B1FC"/>
<rect x="1525.47" y="709.321" width="385.531" height="125.694" rx="62.8469" transform="rotate(137.264 1525.47 709.321)" fill="#00B1FC"/>
<rect x="1079.65" y="886.933" width="834" height="230" rx="115" transform="rotate(137.264 1079.65 886.933)" fill="#00B1FC"/>
<rect x="466.648" y="-245.067" width="834" height="230" rx="115" transform="rotate(137.264 466.648 -245.067)" fill="#00B1FC"/>
</g>
<defs>
<clipPath id="clip0_258_6">
<rect width="1440" height="1024" fill="white"/>
</clipPath>
</defs>
</svg>
