<svg width="1440" height="1024" viewBox="0 0 1440 1024" fill="none" xmlns="http://www.w3.org/2000/svg">
<g clip-path="url(#clip0_232_2)">
<rect width="1440" height="1024" fill="white"/>
<g opacity="0.8">
<ellipse cx="158.5" cy="-142" rx="273.5" ry="233" fill="#00B1FC"/>
<ellipse cx="1617" cy="72.5" rx="353" ry="304.5" fill="#00B1FC"/>
<ellipse cx="-174" cy="1083" rx="353" ry="268" fill="#00B1FC"/>
<rect x="1194.21" y="650" width="834" height="230" rx="115" transform="rotate(44.5 1194.21 650)" fill="#00B1FC"/>
</g>
<path d="M561.8 224.66C558.32 224.66 555.32 224.1 552.8 222.98C550.32 221.82 548.04 220.08 545.96 217.76L552.08 211.7C553.44 213.26 554.94 214.48 556.58 215.36C558.26 216.2 560.2 216.62 562.4 216.62C564.4 216.62 565.94 216.26 567.02 215.54C568.14 214.82 568.7 213.82 568.7 212.54C568.7 211.38 568.34 210.44 567.62 209.72C566.9 209 565.94 208.38 564.74 207.86C563.58 207.34 562.28 206.84 560.84 206.36C559.44 205.88 558.04 205.34 556.64 204.74C555.24 204.1 553.94 203.32 552.74 202.4C551.58 201.44 550.64 200.26 549.92 198.86C549.2 197.42 548.84 195.62 548.84 193.46C548.84 190.86 549.46 188.62 550.7 186.74C551.98 184.86 553.74 183.44 555.98 182.48C558.22 181.48 560.8 180.98 563.72 180.98C566.68 180.98 569.38 181.5 571.82 182.54C574.3 183.58 576.34 185 577.94 186.8L571.82 192.86C570.54 191.54 569.24 190.56 567.92 189.92C566.64 189.28 565.18 188.96 563.54 188.96C561.9 188.96 560.6 189.28 559.64 189.92C558.68 190.52 558.2 191.4 558.2 192.56C558.2 193.64 558.56 194.52 559.28 195.2C560 195.84 560.94 196.4 562.1 196.88C563.3 197.36 564.6 197.84 566 198.32C567.44 198.8 568.86 199.36 570.26 200C571.66 200.64 572.94 201.46 574.1 202.46C575.3 203.42 576.26 204.66 576.98 206.18C577.7 207.66 578.06 209.5 578.06 211.7C578.06 215.74 576.62 218.92 573.74 221.24C570.86 223.52 566.88 224.66 561.8 224.66ZM609.26 224V181.64H618.68V224H609.26ZM672.019 224.66C668.939 224.66 666.039 224.1 663.319 222.98C660.639 221.86 658.299 220.32 656.299 218.36C654.299 216.36 652.719 214.04 651.559 211.4C650.439 208.72 649.879 205.84 649.879 202.76C649.879 199.68 650.459 196.82 651.619 194.18C652.779 191.54 654.379 189.24 656.419 187.28C658.499 185.28 660.919 183.74 663.679 182.66C666.439 181.54 669.399 180.98 672.559 180.98C676.199 180.98 679.499 181.64 682.459 182.96C685.459 184.28 687.939 186.1 689.899 188.42L683.479 194.84C682.119 193.08 680.519 191.76 678.679 190.88C676.839 190 674.759 189.56 672.439 189.56C669.959 189.56 667.739 190.12 665.779 191.24C663.819 192.32 662.279 193.86 661.159 195.86C660.079 197.82 659.539 200.12 659.539 202.76C659.539 205.4 660.079 207.72 661.159 209.72C662.239 211.72 663.719 213.28 665.599 214.4C667.479 215.52 669.639 216.08 672.079 216.08C674.559 216.08 676.659 215.62 678.379 214.7C680.139 213.74 681.479 212.38 682.399 210.62C683.359 208.82 683.839 206.64 683.839 204.08L690.079 208.28L671.179 207.98V200H693.439V201.38C693.439 206.46 692.519 210.74 690.679 214.22C688.879 217.66 686.359 220.26 683.119 222.02C679.919 223.78 676.219 224.66 672.019 224.66ZM724.348 224V181.64H730.948L733.768 190.1V224H724.348ZM753.568 224L728.608 192.02L730.948 181.64L755.908 213.62L753.568 224ZM753.568 224L751.048 215.54V181.64H760.468V224H753.568ZM810.885 224.66C807.405 224.66 804.325 223.92 801.645 222.44C799.005 220.96 796.925 218.92 795.405 216.32C793.925 213.68 793.185 210.68 793.185 207.32V181.64H802.665V207.86C802.665 209.54 803.025 211 803.745 212.24C804.465 213.48 805.445 214.44 806.685 215.12C807.965 215.76 809.365 216.08 810.885 216.08C812.485 216.08 813.885 215.76 815.085 215.12C816.285 214.44 817.225 213.5 817.905 212.3C818.625 211.06 818.985 209.6 818.985 207.92V181.64H828.465V207.38C828.465 210.74 827.725 213.72 826.245 216.32C824.765 218.92 822.705 220.96 820.065 222.44C817.425 223.92 814.365 224.66 810.885 224.66ZM868.374 208.58V201.26H877.494C878.654 201.26 879.714 201.02 880.674 200.54C881.634 200.06 882.394 199.36 882.954 198.44C883.514 197.52 883.794 196.4 883.794 195.08C883.794 193.8 883.514 192.7 882.954 191.78C882.394 190.86 881.634 190.16 880.674 189.68C879.714 189.2 878.654 188.96 877.494 188.96H868.374V181.64H878.874C881.554 181.64 883.974 182.18 886.134 183.26C888.294 184.34 889.994 185.9 891.234 187.94C892.514 189.94 893.154 192.32 893.154 195.08C893.154 197.84 892.514 200.24 891.234 202.28C889.994 204.28 888.294 205.84 886.134 206.96C883.974 208.04 881.554 208.58 878.874 208.58H868.374ZM861.174 224V181.64H870.594V224H861.174Z" fill="white"/>
<ellipse cx="1046" cy="323" rx="151" ry="214" fill="#33C1FD"/>
<ellipse cx="93.5" cy="247.5" rx="52.5" ry="75.5" fill="#33C1FD"/>
<ellipse cx="368.526" cy="323.46" rx="76.423" ry="100.978" transform="rotate(40.153 368.526 323.46)" fill="#33C1FD"/>
<ellipse cx="877" cy="1002" rx="117" ry="187" fill="#33C1FD"/>
<ellipse cx="146" cy="582.5" rx="188" ry="94.5" fill="#33C1FD"/>
<ellipse cx="614.5" cy="108.5" rx="105.5" ry="155.5" fill="#33C1FD"/>
<ellipse cx="734.163" cy="522.977" rx="156" ry="72.5" transform="rotate(45.3949 734.163 522.977)" fill="#33C1FD"/>
<ellipse cx="1415.5" cy="563.5" rx="105.5" ry="155.5" fill="#33C1FD"/>
<ellipse cx="432.443" cy="811.471" rx="126.972" ry="229.898" transform="rotate(34.2987 432.443 811.471)" fill="#33C1FD"/>
</g>
<defs>
<clipPath id="clip0_232_2">
<rect width="1440" height="1024" fill="white"/>
</clipPath>
</defs>
</svg>
